<?xml version="1.0" encoding="UTF-8"?>
<svg width="752pt" height="752pt" version="1.1" viewBox="0 0 752 752" xmlns="http://www.w3.org/2000/svg">
 <g>
  <path d="m451.34 223.16v-1.4336c0-41.621-33.727-75.344-75.344-75.344s-75.344 33.727-75.344 75.344v1.4336h30.137v-1.4336c0-25.113 20.09-45.207 45.207-45.207 25.113 0 45.207 20.09 45.207 45.207v1.4336z"/>
  <path d="m345.86 221.73c0 16.504 13.633 30.137 30.137 30.137s30.137-13.633 30.137-30.137c0-16.504-13.633-30.137-30.137-30.137s-30.137 13.633-30.137 30.137z"/>
  <path d="m421.21 528.84v1.4336c0 25.113-20.09 45.207-45.207 45.207-25.113 0-45.207-20.09-45.207-45.207v-1.4336h-30.137v1.4336c0.003906 41.617 33.727 75.344 75.344 75.344s75.344-33.727 75.344-75.344v-1.4336z"/>
  <path d="m406.14 530.27c0-16.504-13.633-30.137-30.137-30.137s-30.137 13.633-30.137 30.137c0 16.504 13.633 30.137 30.137 30.137s30.137-13.633 30.137-30.137z"/>
  <path d="m485.07 258.32c21.527-12.914 49.512-5.7422 62.426 15.785 12.914 21.527 5.7422 49.512-15.785 62.426 0 0-0.71875 0.71875-1.4336 0.71875l15.785 25.832c0.71875 0 0.71875-0.71875 1.4336-0.71875 35.879-21.527 47.359-67.449 26.551-103.33-20.812-35.875-68.168-48.074-104.05-26.547l-0.71875 0.71875 15.785 25.832c-0.71484 0 0.003906-0.71875 0.003906-0.71875z"/>
  <path d="m523.82 322.9c14.352-8.6094 19.375-27.266 10.762-41.617-8.6094-14.352-27.266-19.375-41.617-10.762-14.352 8.6094-19.375 27.266-10.762 41.617 8.6094 15.066 27.266 19.371 41.617 10.762z"/>
  <path d="m266.93 493.68c-21.527 12.914-49.512 5.7422-62.426-15.785-12.914-21.527-5.7422-49.512 15.785-62.426 0 0 0.71875-0.71875 1.4336-0.71875l-15.785-25.832c-0.71875 0-0.71875 0.71875-1.4336 0.71875-35.879 21.527-47.359 67.449-26.551 103.33 20.809 35.875 68.168 48.074 104.05 26.547l0.71875-0.71875-15.785-25.832c0.71484 0-0.003906 0.71875-0.003906 0.71875z"/>
  <path d="m217.42 470c8.6094 14.352 27.266 19.375 41.617 10.762 14.352-8.6094 19.375-27.266 10.762-41.617-8.6094-14.352-27.266-19.375-41.617-10.762-14.348 9.3281-19.371 27.266-10.762 41.617z"/>
  <path d="m205.23 363.09s0.71875 0.71875 1.4336 0.71875l15.07-25.832c-0.71875 0-0.71875-0.71875-1.4336-0.71875-21.527-12.914-28.703-40.184-15.785-61.711 12.914-21.527 40.184-28.703 61.711-15.785l0.71875 0.71875 15.07-25.832-0.71875-0.71875c-35.879-20.809-82.52-9.3281-103.33 26.551-20.816 35.16-9.3359 81.801 27.262 102.61z"/>
  <path d="m269.09 313.57c8.6094-14.352 3.5859-33.008-10.762-41.617-14.352-8.6094-33.008-3.5859-41.617 10.762-8.6094 14.352-3.5859 33.008 10.762 41.617 14.352 7.8945 33.008 3.5898 41.617-10.762z"/>
  <path d="m546.78 388.92c-0.71875 0-0.71875-0.71875-1.4336-0.71875l-15.07 25.832c0.71875 0 0.71875 0.71875 1.4336 0.71875 21.527 12.914 28.703 40.184 15.785 61.711-12.914 21.527-40.184 28.703-61.711 15.785-0.71875 0-0.71875-0.71875-0.71875-0.71875l-15.07 25.832 0.71875 0.71875c35.879 20.809 82.52 9.3281 103.33-26.551 20.812-35.16 9.332-81.801-27.262-102.61z"/>
  <path d="m493.68 480.05c14.352 8.6094 33.008 3.5859 41.617-10.762 8.6094-14.352 3.5859-33.008-10.762-41.617-14.352-8.6094-33.008-3.5859-41.617 10.762-8.6133 14.348-3.5898 33.004 10.762 41.617z"/>
  <path d="m468.57 376c0 51.121-41.445 92.566-92.566 92.566s-92.562-41.445-92.562-92.566 41.441-92.562 92.562-92.562 92.566 41.441 92.566 92.562"/>
 </g>
</svg>
