<?xml version="1.0" encoding="UTF-8"?>
<svg width="752pt" height="752pt" version="1.1" viewBox="0 0 752 752" xmlns="http://www.w3.org/2000/svg">
 <path d="m316.33 572.54c-7.5781 0-14.68-2.8398-19.891-8.0508l-124.08-127.87c-11.84-10.891-12.312-29.363-0.94531-41.203 10.891-11.84 29.363-12.312 41.203-0.94531l90.926 64.879c5.2109 4.7344 13.262 3.7891 17.523-1.8945l215.48-266.15c9.4727-12.785 27.941-15.629 40.727-5.6836 12.785 9.4727 15.629 27.941 5.6836 40.727l-243.42 334.35c-5.2109 6.6289-12.785 10.891-20.836 11.367-0.94922 0.47266-1.4219 0.47266-2.3672 0.47266z"/>
</svg>
